HIERARCHY
ROOT hip
{
  OFFSET 0 0 0
  CHANNELS 6 Xposition Yposition Zposition Zrotation Yrotation Xrotation
  JOINT abdomen
  {
    OFFSET 0 20.6881 -0.73152
    CHANNELS 3 Zrotation Xrotation Yrotation
    JOINT chest
    {
      OFFSET 0 11.7043 -0.48768
      CHANNELS 3 Zrotation Xrotation Yrotation
      JOINT neck
      {
        OFFSET 0 22.1894 -2.19456
        CHANNELS 3 Zrotation Xrotation Yrotation
        JOINT head
        {
          OFFSET -0.24384 7.07133 1.2192
          CHANNELS 3 Zrotation Xrotation Yrotation
          JOINT leftEye
          {
            OFFSET 4.14528 8.04674 8.04672
            CHANNELS 3 Zrotation Xrotation Yrotation
            End Site
            {
              OFFSET 1 0 0
            }
          }
          JOINT rightEye
          {
            OFFSET -3.6576 8.04674 8.04672
            CHANNELS 3 Zrotation Xrotation Yrotation
            End Site
            {
              OFFSET 1 0 0
            }
          }
        }
      }
      JOINT rCollar
      {
        OFFSET -2.68224 19.2634 -4.8768
        CHANNELS 3 Zrotation Xrotation Yrotation
        JOINT rShldr
        {
          OFFSET -8.77824 -1.95073 1.46304
          CHANNELS 3 Zrotation Xrotation Yrotation
          JOINT rForeArm
          {
            OFFSET -28.1742 -1.7115 0.48768
            CHANNELS 3 Zrotation Xrotation Yrotation
            JOINT rHand
            {
              OFFSET -22.5879 0.773209 7.07136
              CHANNELS 3 Zrotation Xrotation Yrotation
              JOINT rThumb1
              {
                OFFSET -1.2192 -0.487915 3.41376
                CHANNELS 3 Zrotation Xrotation Yrotation
                JOINT rThumb2
                {
                  OFFSET -3.37035 -0.52449 3.41376
                  CHANNELS 3 Zrotation Xrotation Yrotation
                  End Site
                  {
                    OFFSET -1.78271 -1.18214 1.43049
                  }
                }
              }
              JOINT rIndex1
              {
                OFFSET -7.75947 0.938293 5.60832
                CHANNELS 3 Zrotation Xrotation Yrotation
                JOINT rIndex2
                {
                  OFFSET -2.54057 -0.884171 1.56538
                  CHANNELS 3 Zrotation Xrotation Yrotation
                  End Site
                  {
                    OFFSET -1.62519 -0.234802 1.16502
                  }
                }
              }
              JOINT rMid1
              {
                OFFSET -8.24714 1.18213 3.41376
                CHANNELS 3 Zrotation Xrotation Yrotation
                JOINT rMid2
                {
                  OFFSET -3.10165 -0.590103 1.0647
                  CHANNELS 3 Zrotation Xrotation Yrotation
                  End Site
                  {
                    OFFSET -2.48547 -0.328903 0.83742
                  }
                }
              }
              JOINT rRing1
              {
                OFFSET -8.82822 0.546677 1.51678
                CHANNELS 3 Zrotation Xrotation Yrotation
                JOINT rRing2
                {
                  OFFSET -2.60934 -0.819778 -0.0198488
                  CHANNELS 3 Zrotation Xrotation Yrotation
                  End Site
                  {
                    OFFSET -2.33842 -0.294052 0.168128
                  }
                }
              }
              JOINT rPinky1
              {
                OFFSET -8.27202 -0.0477905 -0.4584
                CHANNELS 3 Zrotation Xrotation Yrotation
                JOINT rPinky2
                {
                  OFFSET -1.82734 -0.647385 -0.700984
                  CHANNELS 3 Zrotation Xrotation Yrotation
                  End Site
                  {
                    OFFSET -1.69225 -0.51767 -0.607171
                  }
                }
              }
            }
          }
        }
      }
      JOINT lCollar
      {
        OFFSET 2.68224 19.2634 -4.8768
        CHANNELS 3 Zrotation Xrotation Yrotation
        JOINT lShldr
        {
          OFFSET 8.77824 -1.95073 1.46304
          CHANNELS 3 Zrotation Xrotation Yrotation
          JOINT lForeArm
          {
            OFFSET 28.1742 -1.7115 0.48768
            CHANNELS 3 Zrotation Xrotation Yrotation
            JOINT lHand
            {
              OFFSET 22.5879 0.773209 7.07136
              CHANNELS 3 Zrotation Xrotation Yrotation
              JOINT lThumb1
              {
                OFFSET 1.2192 -0.487915 3.41376
                CHANNELS 3 Zrotation Xrotation Yrotation
                JOINT lThumb2
                {
                  OFFSET 3.37035 -0.52449 3.41376
                  CHANNELS 3 Zrotation Xrotation Yrotation
                  End Site
                  {
                    OFFSET 1.78271 -1.18214 1.43049
                  }
                }
              }
              JOINT lIndex1
              {
                OFFSET 7.75947 0.938293 5.60832
                CHANNELS 3 Zrotation Xrotation Yrotation
                JOINT lIndex2
                {
                  OFFSET 2.54057 -0.884171 1.56538
                  CHANNELS 3 Zrotation Xrotation Yrotation
                  End Site
                  {
                    OFFSET 1.62519 -0.234802 1.16502
                  }
                }
              }
              JOINT lMid1
              {
                OFFSET 8.24714 1.18213 3.41376
                CHANNELS 3 Zrotation Xrotation Yrotation
                JOINT lMid2
                {
                  OFFSET 3.10165 -0.590103 1.0647
                  CHANNELS 3 Zrotation Xrotation Yrotation
                  End Site
                  {
                    OFFSET 2.48547 -0.328903 0.83742
                  }
                }
              }
              JOINT lRing1
              {
                OFFSET 8.82822 0.546677 1.51678
                CHANNELS 3 Zrotation Xrotation Yrotation
                JOINT lRing2
                {
                  OFFSET 2.60934 -0.819778 -0.0198488
                  CHANNELS 3 Zrotation Xrotation Yrotation
                  End Site
                  {
                    OFFSET 2.33842 -0.294052 0.168128
                  }
                }
              }
              JOINT lPinky1
              {
                OFFSET 8.27202 -0.0477905 -0.4584
                CHANNELS 3 Zrotation Xrotation Yrotation
                JOINT lPinky2
                {
                  OFFSET 1.82734 -0.647385 -0.700984
                  CHANNELS 3 Zrotation Xrotation Yrotation
                  End Site
                  {
                    OFFSET 1.69225 -0.51767 -0.607171
                  }
                }
              }
            }
          }
        }
      }
    }
  }
  JOINT rButtock
  {
    OFFSET -8.77824 4.35084 1.2192
    CHANNELS 3 Zrotation Xrotation Yrotation
    JOINT rThigh
    {
      OFFSET 0 -1.70687 -2.19456
      CHANNELS 3 Zrotation Xrotation Yrotation
      JOINT rShin
      {
        OFFSET 0 -36.8199 0.73152
        CHANNELS 3 Zrotation Xrotation Yrotation
        JOINT rFoot
        {
          OFFSET 0.73152 -45.1104 -5.12064
          CHANNELS 3 Zrotation Xrotation Yrotation
          End Site
          {
            OFFSET -1.1221 -3.69964 12.103
          }
        }
      }
    }
  }
  JOINT lButtock
  {
    OFFSET 8.77824 4.35084 1.2192
    CHANNELS 3 Zrotation Xrotation Yrotation
    JOINT lThigh
    {
      OFFSET 0 -1.70687 -2.19456
      CHANNELS 3 Zrotation Xrotation Yrotation
      JOINT lShin
      {
        OFFSET 0 -36.8199 0.73152
        CHANNELS 3 Zrotation Xrotation Yrotation
        JOINT lFoot
        {
          OFFSET -0.73152 -45.1104 -5.12064
          CHANNELS 3 Zrotation Xrotation Yrotation
          End Site
          {
            OFFSET 1.1221 -3.69964 12.103
          }
        }
      }
    }
  }
}
MOTION
Frames:	7
Frame Time:	0.00833333
-171.024 84.0179 -114.762 0.0 0.0 0.0 -1.6555 -0.00357561 -0.0452721 -0.457097 0.000155027 -0.0791634 -1.67182e-14 0.0 -4.47266e-16 -4.94166e-14 3.18055e-15 -1.29521e-15 -0.0 0.0 0.0 -0.0 0.0 0.0 -8.05227e-15 1.70831e-17 0.0 -1.73031e-13 4.53478e-16 -4.57205e-15 -2.98525e-12 9.14807e-13 -5.725e-14 -3.42761e-11 -8.2677e-13 -9.31903e-13 -8.08365e-11 1.89905e-13 -2.12779e-12 -1.39612e-10 3.30778e-13 -3.67513e-12 -8.08282e-11 1.92821e-13 -2.13733e-12 7.73091 5.47488 0.417314 -8.08369e-11 1.90138e-13 -2.12461e-12 2.90554 0.965183 0.102902 -8.08283e-11 1.90436e-13 -2.1262e-12 10.2786 0.731801 0.0259123 -8.08429e-11 1.91231e-13 -2.11825e-12 2.22167 -0.733487 -0.20892 -8.24862e-15 1.98008e-17 -3.97569e-16 -1.75344e-13 4.28629e-16 -5.76476e-15 -3.00205e-12 -8.81014e-13 -7.31528e-14 -3.42741e-11 9.76778e-13 -9.03278e-13 -8.08596e-11 2.06707e-13 -2.12779e-12 -1.39629e-10 3.56222e-13 -3.6632e-12 -8.08648e-11 2.09121e-13 -2.11825e-12 -7.73091 5.47488 -0.417314 -8.08598e-11 2.07034e-13 -2.13097e-12 -2.90554 0.965183 -0.102902 -8.08669e-11 2.06835e-13 -2.12859e-12 -10.2786 0.731801 -0.0259123 -8.08531e-11 2.07531e-13 -2.13415e-12 -2.22167 -0.733487 0.20892 -2.03217e-16 0.0 -3.88251e-19 -0.80355 -1.9234 -0.00371509 -0.00881774 -2.07862 -0.0725649 -0.451918 3.99778 0.131415 2.03217e-16 0.0 3.88251e-19 -1.71772 -6.77986 0.164477 -0.00322758 6.71842 -0.0840662 0.482253 0.0572995 -0.0559136
-166.836 82.7555 -118.574 -13.5153 75.553 -7.2615 -0.465481 6.28704 -0.0797771 0.693509 0.882081 0.025692 0.300753 3.52917 0.950725 -2.44343 -11.289 1.11661 -0.0 0.0 0.0 -0.0 0.0 0.0 -5.49964e-15 3.53191e-14 -9.47721e-15 17.6538 15.2932 -2.60916 -7.60359 -4.5664 10.4233 0.000549776 0.520235 0.0731033 1.72057e-10 2.84908e-11 -2.31849e-11 2.97625e-10 4.93406e-11 -4.08747e-11 1.72065e-10 2.84916e-11 -2.31963e-11 7.73091 5.47488 0.417314 1.72058e-10 2.84887e-11 -2.31854e-11 2.90554 0.965183 0.102902 1.72066e-10 2.84886e-11 -2.31868e-11 10.2786 0.731801 0.0259123 1.72051e-10 2.84897e-11 -2.31812e-11 2.22167 -0.733487 -0.20892 -5.67308e-15 3.53255e-14 -9.82043e-15 -21.4323 9.0071 3.77913 8.28553 -5.19062 -11.0237 -0.00063475 0.562387 -0.0790249 2.78426e-10 -1.50096e-10 1.93788e-10 4.82306e-10 -2.59969e-10 3.34752e-10 2.78422e-10 -1.50093e-10 1.93797e-10 -7.73091 5.47488 -0.417314 2.78427e-10 -1.50094e-10 1.93785e-10 -2.90554 0.965183 -0.102902 2.7842e-10 -1.50094e-10 1.93787e-10 -10.2786 0.731801 -0.0259123 2.78433e-10 -1.50093e-10 1.9378e-10 -2.22167 -0.733487 0.20892 -2.03217e-16 0.0 -3.88251e-19 0.50589 -0.984088 4.03104 0.00402878 0.871632 0.00956552 -0.568905 -1.66861 -1.16095 2.03217e-16 0.0 3.88251e-19 0.972796 -12.9136 -1.16353 0.0346751 14.47 -0.163544 -0.100683 -1.92022 -4.61668
-166.838 82.755 -118.575 -13.4731 75.5399 -7.2104 0.801691 12.9387 -0.119396 1.90688 1.81468 0.136351 0.489419 7.25548 1.96806 -4.50819 -23.2083 2.45214 -0.0 0.0 0.0 -0.0 0.0 0.0 -3.39222e-15 7.65347e-14 -1.97232e-14 38.0626 31.3488 -6.06386 -13.8582 -8.8876 21.6454 -0.000313702 1.07152 0.150591 4.44649e-10 5.97751e-11 -5.04024e-11 7.68911e-10 1.03514e-10 -8.8789e-11 4.44656e-10 5.97737e-11 -5.04158e-11 7.73091 5.47488 0.417314 4.44651e-10 5.97705e-11 -5.0407e-11 2.90554 0.965183 0.102902 4.44658e-10 5.977e-11 -5.04081e-11 10.2786 0.731801 0.0259123 4.44642e-10 5.97713e-11 -5.04052e-11 2.22167 -0.733487 -0.20892 -3.54068e-15 7.65447e-14 -2.00089e-14 -45.4461 18.3878 8.10176 14.9092 -10.0435 -22.964 0.000391374 1.16416 -0.16361 6.76036e-10 -3.19598e-10 4.16793e-10 1.17057e-09 -5.53537e-10 7.19963e-10 6.76033e-10 -3.19593e-10 4.168e-10 -7.73091 5.47488 -0.417314 6.76037e-10 -3.19595e-10 4.1679e-10 -2.90554 0.965183 -0.102902 6.76031e-10 -3.19594e-10 4.16791e-10 -10.2786 0.731801 -0.0259123 6.76043e-10 -3.19594e-10 4.16783e-10 -2.22167 -0.733487 0.20892 -2.03217e-16 0.0 -3.88251e-19 1.74791 0.00473106 8.29394 0.00840114 3.9904 0.0965864 -0.972348 -7.6548 -2.54835 2.03217e-16 0.0 3.88251e-19 3.49118 -19.3837 -2.65678 0.1002 22.6652 -0.257435 -1.05824 -3.96724 -9.45622
-166.84 82.7544 -118.576 -13.4284 75.524 -7.1562 1.93871 18.8682 -0.155715 2.98503 2.64591 0.235645 0.545891 10.5757 2.896 -5.78321 -33.8101 3.9546 -0.0 0.0 0.0 -0.0 0.0 0.0 -3.94389e-16 1.05923e-13 -2.84316e-14 58.6237 45.4144 -10.7881 -18.0137 -11.8854 31.932 -0.0023345 1.56069 0.219382 6.77845e-10 8.50926e-11 -6.52992e-11 1.1721e-09 1.4736e-10 -1.15274e-10 6.77852e-10 8.50893e-11 -6.53142e-11 7.73091 5.47488 0.417314 6.77849e-10 8.50859e-11 -6.53071e-11 2.90554 0.965183 0.102902 6.77855e-10 8.5085e-11 -6.53078e-11 10.2786 0.731801 0.0259123 6.77838e-10 8.50866e-11 -6.53071e-11 2.22167 -0.733487 -0.20892 -5.21995e-16 1.05937e-13 -2.86661e-14 -68.1893 26.523 12.5347 19.1036 -13.2624 -33.9568 0.00275147 1.68715 -0.237166 9.96997e-10 -4.50702e-10 5.85621e-10 1.72618e-09 -7.8062e-10 1.01158e-09 9.96995e-10 -4.50696e-10 5.85627e-10 -7.73091 5.47488 -0.417314 9.96999e-10 -4.50697e-10 5.85617e-10 -2.90554 0.965183 -0.102902 9.96994e-10 -4.50696e-10 5.85619e-10 -10.2786 0.731801 -0.0259123 9.97004e-10 -4.50695e-10 5.85609e-10 -2.22167 -0.733487 0.20892 -2.03217e-16 0.0 -3.88251e-19 2.73051 0.867503 12.1002 0.00426435 6.77211 0.174948 -1.58353 -12.9742 -3.84177 2.03217e-16 0.0 3.88251e-19 5.42082 -25.1317 -4.1195 0.185238 29.973 -0.355655 -2.20499 -5.725 -13.8006
-166.834 82.7536 -118.577 -13.3794 75.5072 -7.0969 2.73151 22.9927 -0.177199 3.73196 3.22374 0.306283 0.525108 12.892 3.5588 -6.23786 -41.1715 5.31519 -0.0 0.0 0.0 -0.0 0.0 0.0 4.82945e-15 1.05744e-13 -3.32964e-14 75.3893 54.9033 -16.1654 -20.2327 -13.3072 39.2477 -0.00440427 1.89457 0.266363 8.12552e-10 9.5493e-11 -4.9394e-11 1.40504e-09 1.65389e-10 -8.81849e-11 8.12559e-10 9.54886e-11 -4.94099e-11 7.73091 5.47488 0.417314 8.12556e-10 9.54853e-11 -4.94036e-11 2.90554 0.965183 0.102902 8.12562e-10 9.5484e-11 -4.94036e-11 10.2786 0.731801 0.0259123 8.12545e-10 9.54858e-11 -4.94036e-11 2.22167 -0.733487 -0.20892 4.71242e-15 1.05762e-13 -3.34952e-14 -84.8923 32.0191 16.1084 21.2188 -14.6265 -41.7276 0.00497342 2.01321 -0.283055 1.12634e-09 -4.85808e-10 6.19006e-10 1.95017e-09 -8.41492e-10 1.06922e-09 1.12634e-09 -4.85802e-10 6.19012e-10 -7.73091 5.47488 -0.417314 1.12634e-09 -4.85802e-10 6.19003e-10 -2.90554 0.965183 -0.102902 1.12633e-09 -4.85801e-10 6.19004e-10 -10.2786 0.731801 -0.0259123 1.12634e-09 -4.85801e-10 6.18993e-10 -2.22167 -0.733487 0.20892 -2.03217e-16 0.0 -3.88251e-19 3.34245 1.44804 14.7616 -0.00314368 8.71119 0.230227 -2.15784 -16.6545 -4.79492 2.03217e-16 0.0 3.88251e-19 6.56197 -29.1191 -5.24317 0.263067 35.0628 -0.436115 -3.16634 -6.9025 -16.8477
-166.827 82.7529 -118.578 -13.3337 75.4922 -7.0416 3.03044 24.5894 -0.170584 4.01847 3.44823 0.337185 0.515463 13.8104 3.81989 -6.30811 -44.0449 5.93804 -0.0 0.0 0.0 -0.0 0.0 0.0 1.9731e-14 7.33191e-14 -4.23578e-14 82.9052 58.4776 -19.1479 -20.9785 -13.6918 42.1404 -0.00528702 2.01093 0.282743 7.50419e-10 7.67319e-11 2.18499e-11 1.29779e-09 1.32944e-10 3.52758e-11 7.50425e-10 7.67276e-11 2.1834e-11 7.73091 5.47488 0.417314 7.50423e-10 7.67251e-11 2.18413e-11 2.90554 0.965183 0.102902 7.50427e-10 7.67232e-11 2.1843e-11 10.2786 0.731801 0.0259123 7.50414e-10 7.67251e-11 2.18444e-11 2.22167 -0.733487 -0.20892 1.96077e-14 7.33426e-14 -4.25438e-14 -91.5859 34.2017 17.5845 21.8705 -14.8872 -44.6662 0.00555021 2.06535 -0.290401 9.44192e-10 -3.61996e-10 4.1332e-10 1.63519e-09 -6.2724e-10 7.13691e-10 9.44194e-10 -3.61991e-10 4.13328e-10 -7.73091 5.47488 -0.417314 9.44195e-10 -3.61992e-10 4.13318e-10 -2.90554 0.965183 -0.102902 9.44191e-10 -3.61991e-10 4.13319e-10 -10.2786 0.731801 -0.0259123 9.442e-10 -3.6199e-10 4.13309e-10 -2.22167 -0.733487 0.20892 -2.03217e-16 0.0 -3.88251e-19 3.55543 1.66054 15.8165 -0.00697343 9.47189 0.251937 -2.41606 -18.0611 -5.18399 2.03217e-16 0.0 3.88251e-19 6.95015 -30.6741 -5.70797 0.298805 37.0469 -0.470398 -3.58227 -7.36728 -18.0395
-166.82 82.7516 -118.579 -13.2837 75.4718 -6.9749 2.97515 24.3805 -0.14299 3.97682 3.42028 0.339624 0.541569 13.7325 3.78524 -6.35259 -43.7302 5.83255 -0.0 0.0 0.0 -0.0 0.0 0.0 4.12329e-14 1.74264e-14 -5.39607e-14 82.0776 58.0669 -18.8216 -20.9054 -13.6629 41.8367 -0.00505061 1.97193 0.277254 5.50494e-10 3.75354e-11 1.3204e-10 9.52405e-10 6.51292e-11 2.26556e-10 5.50498e-10 3.7532e-11 1.32025e-10 7.73091 5.47488 0.417314 5.50497e-10 3.75308e-11 1.32034e-10 2.90554 0.965183 0.102902 5.505e-10 3.7528e-11 1.32038e-10 10.2786 0.731801 0.0259123 5.5049e-10 3.75301e-11 1.32042e-10 2.22167 -0.733487 -0.20892 4.10914e-14 1.74568e-14 -5.41502e-14 -90.7054 34.1385 17.2761 21.725 -14.7586 -44.1212 0.00476628 1.92176 -0.270193 5.41618e-10 -1.2584e-10 3.9225e-11 9.38782e-10 -2.18491e-10 6.71194e-11 5.41622e-10 -1.25837e-10 3.92357e-11 -7.73091 5.47488 -0.417314 5.41619e-10 -1.25838e-10 3.92238e-11 -2.90554 0.965183 -0.102902 5.41617e-10 -1.25838e-10 3.9224e-11 -10.2786 0.731801 -0.0259123 5.41626e-10 -1.25836e-10 3.92171e-11 -2.22167 -0.733487 0.20892 -2.03217e-16 0.0 -3.88251e-19 3.51082 1.61867 15.7223 -0.00633348 9.39083 0.249262 -2.38315 -17.8504 -5.14265 2.03217e-16 0.0 3.88251e-19 6.89294 -30.5018 -5.6461 0.295348 36.8128 -0.464909 -3.54303 -7.35184 -17.8952
